<svg width="321" height="321" viewBox="0 0 321 321" fill="none" xmlns="http://www.w3.org/2000/svg">
<path d="M320.4 167.347C320.4 121.519 300.136 80.3585 268.132 52.2763C240.054 20.2668 198.901 0 153.08 0C68.6724 0 0 68.6834 0 153.104C0 198.922 20.2564 240.075 52.2501 268.157C80.3278 300.177 121.489 320.451 167.32 320.451C167.619 320.451 167.911 320.43 168.21 320.43C168.509 320.43 168.801 320.451 169.1 320.451C252.66 320.451 320.4 252.701 320.4 169.127C320.4 168.828 320.379 168.536 320.379 168.237C320.379 167.938 320.4 167.646 320.4 167.347ZM59.9077 243.44C44.7955 222.155 35.8065 196.23 35.6214 168.237C36.102 95.206 95.1873 36.1077 168.21 35.627C196.199 35.8122 222.123 44.8026 243.401 59.9172C267.797 83.5772 283.02 116.637 283.02 153.104C283.02 224.764 224.729 283.065 153.08 283.065C116.618 283.065 83.5639 267.84 59.9077 243.44ZM3.56 153.104C3.56 70.6452 70.634 3.56057 153.08 3.56057C188.174 3.56057 220.457 15.7448 245.996 36.0686C222.988 22.2251 196.071 14.2423 167.32 14.2423C82.9124 14.2423 14.24 82.9256 14.24 167.347C14.24 196.095 22.218 223.009 36.0521 246.017C15.7388 220.481 3.56 188.197 3.56 153.104ZM167.32 299.088C131.435 299.088 98.8719 284.65 75.0982 261.292C97.0776 277.204 124.023 286.626 153.08 286.626C226.694 286.626 286.58 226.73 286.58 153.104C286.58 124.043 277.16 97.0931 261.251 75.1102C284.604 98.8877 299.04 131.456 299.04 167.347C299.04 239.989 239.951 299.088 167.32 299.088Z" fill="#FEC800"/>
</svg>
