<svg width="39" height="39" viewBox="0 0 39 39" fill="none" xmlns="http://www.w3.org/2000/svg">
<path d="M26.2274 3.47153C26.1494 3.95903 26.1104 4.44652 26.1104 4.93401C26.1104 9.32145 29.6594 12.8684 34.0273 12.8684C34.5148 12.8684 34.9828 12.8119 35.4703 12.7339V28.4682C35.4703 35.0806 31.5703 39 24.9404 39H10.5319C3.89998 39 0 35.0806 0 28.4682V14.0404C0 7.41047 3.89998 3.47153 10.5319 3.47153H26.2274ZM26.6193 15.3274C26.0909 15.2689 25.5663 15.5029 25.2524 15.9318L20.5353 22.0353L15.1319 17.7843C14.8004 17.5308 14.4104 17.4314 14.0204 17.4723C13.6324 17.5308 13.2814 17.7434 13.0454 18.0554L7.27541 25.5647L7.15646 25.7402C6.82497 26.3622 6.98097 27.1617 7.56596 27.5927C7.83896 27.7682 8.13146 27.8852 8.46296 27.8852C8.91341 27.9047 9.34045 27.6687 9.61345 27.3002L14.5079 20.9998L20.0654 25.1747L20.2409 25.2898C20.8649 25.6213 21.6449 25.4672 22.0934 24.8803L27.7289 17.6088L27.6509 17.6478C27.9629 17.2188 28.0214 16.6728 27.8069 16.1853C27.5943 15.6978 27.1244 15.3664 26.6193 15.3274ZM34.3005 0C36.894 0 39 2.10597 39 4.69943C39 7.29289 36.894 9.39886 34.3005 9.39886C31.707 9.39886 29.601 7.29289 29.601 4.69943C29.601 2.10597 31.707 0 34.3005 0Z" fill="#8F8F8F"/>
</svg>
