<svg width="35" height="37" viewBox="0 0 35 37" fill="none" xmlns="http://www.w3.org/2000/svg">
<path d="M12.222 34.7307V29.0739C12.222 27.6299 13.3961 26.4593 14.8445 26.4593H20.139C20.8346 26.4593 21.5016 26.7347 21.9934 27.2251C22.4852 27.7154 22.7615 28.3804 22.7615 29.0739V34.7307C22.7572 35.331 22.9933 35.9083 23.4175 36.3343C23.8418 36.7604 24.419 37 25.0212 37H28.6334C30.3204 37.0043 31.9398 36.3392 33.1343 35.1515C34.3287 33.9637 35 32.3509 35 30.669V14.5537C35 13.195 34.3959 11.9063 33.3506 11.0346L21.0627 1.25036C18.9252 -0.465161 15.8626 -0.409771 13.7889 1.38191L1.78134 11.0346C0.686627 11.8806 0.0323332 13.1732 0 14.5537V30.6525C0 34.1581 2.85044 37 6.36664 37H9.89632C11.147 37 12.1634 35.994 12.1725 34.7471L12.222 34.7307Z" fill="#8F8F8F"/>
</svg>
