<svg width="57" height="70" viewBox="0 0 57 70" fill="none" xmlns="http://www.w3.org/2000/svg">
<path d="M11.3436 6.42249C11.4301 6.42249 11.5158 6.41626 11.5992 6.40535L14.1161 16.636C14.159 16.8066 14.1956 16.9563 14.1987 16.9679C14.2026 16.9788 14.2579 17.123 14.3218 17.2874C14.3218 17.2874 16.1117 21.8904 28.5001 21.8904C40.8869 21.8904 42.6776 17.2874 42.6776 17.2874C42.7407 17.123 42.828 16.8479 42.8708 16.6773L45.408 6.37574C45.5428 6.40691 45.6847 6.42405 45.8311 6.42405C46.8699 6.42405 47.7154 5.58013 47.7154 4.53985C47.7154 3.49956 46.8699 2.65487 45.8311 2.65487C44.7885 2.65487 43.9454 3.49956 43.9454 4.53985C43.9454 4.95207 44.0786 5.33311 44.3031 5.64403L39.9082 9.09996C39.7663 9.21295 39.598 9.16853 39.5365 9.00255L37.4847 3.44424C37.4232 3.27904 37.2712 3.24865 37.145 3.37878L32.528 8.1563C32.4017 8.28565 32.2272 8.26539 32.1391 8.11032L29.4999 3.48008C30.0313 3.14657 30.3819 2.55668 30.3819 1.8842C30.3819 0.843137 29.5388 0 28.4985 0C27.4575 0 26.6135 0.843916 26.6135 1.8842C26.6135 2.55668 26.9658 3.14579 27.4949 3.48008L24.8571 8.11032C24.7691 8.26539 24.5945 8.28565 24.4691 8.1563L19.8521 3.37878C19.7266 3.24865 19.5747 3.27904 19.5123 3.44424L17.4598 9.00255C17.399 9.16853 17.2323 9.21295 17.0889 9.09996L12.8031 5.72975C13.068 5.40481 13.2262 4.99181 13.2262 4.54063C13.2262 3.50034 12.3823 2.65565 11.342 2.65565C10.3009 2.65565 9.45703 3.50034 9.45703 4.54063C9.45859 5.57858 10.3025 6.42249 11.3436 6.42249Z" fill="#8C67F6"/>
<path d="M56.9447 45.9876L52.5529 38.6947C52.4609 38.5428 52.4726 38.2988 52.5801 38.1562L55.3441 34.4097C55.4516 34.2655 55.4633 34.0232 55.3714 33.8712L47.332 20.4683C47.2424 20.3156 47.0296 20.1278 46.8613 20.053L43.841 18.6932C43.6734 18.6168 43.4404 18.6659 43.3243 18.8031C43.3243 18.8031 42.2879 20.0031 41.0022 20.7434C38.2008 22.3564 33.9937 23.2143 28.4993 23.2143C23.0174 23.2143 18.7993 22.3369 15.9629 20.6873C14.794 20.007 13.6906 18.7945 13.6906 18.7945C13.5699 18.6612 13.3337 18.6137 13.1662 18.6893L10.1373 20.0537C9.96977 20.1285 9.75782 20.3156 9.66587 20.4691L1.62879 33.872C1.53684 34.0239 1.54853 34.2671 1.65528 34.4104L4.42003 38.157C4.52678 38.3004 4.53847 38.5435 4.44652 38.6955L0.0562847 45.9884C-0.0356656 46.1403 -0.012288 46.3749 0.106936 46.5074L14.1395 62.255C14.2587 62.3906 14.4956 62.4405 14.6647 62.3703L17.6414 61.115C17.8105 61.0433 17.9492 61.129 17.9492 61.3051V64.2366C17.9492 64.4135 18.0855 64.62 18.2515 64.6964L28.1977 69.3289C28.3645 69.4053 28.6365 69.4053 28.8024 69.3289L38.7486 64.6964C38.9154 64.62 39.051 64.4135 39.051 64.2366V61.3051C39.051 61.1282 39.1905 61.0433 39.3596 61.115L42.3355 62.3703C42.5046 62.4405 42.7407 62.3898 42.8615 62.255L56.8932 46.5074C57.0125 46.3741 57.0351 46.1396 56.9447 45.9876ZM20.3414 56.4497L17.3009 53.2189C17.1964 53.074 17.2315 52.8675 17.378 52.7576L22.2163 48.1765C22.3628 48.0682 22.6184 48.044 22.7844 48.1235L27.6967 50.4355C27.8634 50.515 27.999 50.7215 27.999 50.8984V55.3073C27.999 55.4842 27.8486 55.6486 27.6655 55.6759L20.8643 56.6663C20.6804 56.6928 20.4459 56.5969 20.3414 56.4497ZM34.4605 60.2531C34.4605 60.4285 34.3194 60.6248 34.1457 60.6872L28.8149 62.6018C28.6411 62.6626 28.3575 62.6626 28.1837 62.6018L22.8522 60.6872C22.6792 60.6248 22.5373 60.4285 22.5373 60.2531V57.864C22.5373 57.6855 22.6877 57.5219 22.8709 57.4954L25.1634 57.1603C25.6052 58.1087 26.7016 59.3718 28.4993 59.3718C30.2962 59.3718 31.3926 58.1087 31.8345 57.1603L34.1278 57.4954C34.3093 57.5211 34.4597 57.6855 34.4597 57.864V60.2531H34.4605ZM39.6993 53.2182L36.6587 56.4489C36.5535 56.5962 36.319 56.692 36.1366 56.6647L29.3347 55.6743C29.1515 55.6471 29.0011 55.4826 29.0011 55.3058V50.8968C29.0011 50.7199 29.1367 50.5134 29.3043 50.4371L34.2228 48.1251C34.388 48.0471 34.6428 48.0736 34.7901 48.1796L39.623 52.7561C39.7687 52.8667 39.8037 53.074 39.6993 53.2182ZM45.9247 36.7115L42.1103 40.8789C41.9887 41.0114 41.9716 41.2397 42.0737 41.387L45.2382 45.9845C45.3402 46.1294 45.3441 46.3741 45.2483 46.5245L41.942 51.708C41.8461 51.8584 41.6474 51.8935 41.5009 51.7875L35.3566 47.2632C35.2101 47.1549 35.0909 46.9235 35.0925 46.7489L35.1415 41.0675C35.1423 40.8922 35.281 40.6857 35.447 40.6077L41.6373 37.7207C41.8033 37.6443 41.8679 37.4526 41.783 37.2975L40.4334 34.8694C40.3461 34.7136 40.1489 34.6653 39.9939 34.7627L33.4599 38.8054C33.3049 38.9012 33.1794 39.1248 33.1794 39.3002V45.8006C33.1794 45.9759 33.0321 46.1598 32.8545 46.2066L28.825 47.278C28.6466 47.3263 28.3544 47.3263 28.1759 47.278L24.1473 46.2066C23.9688 46.159 23.8223 45.9751 23.8223 45.8006V39.3002C23.8223 39.1248 23.6953 38.9012 23.5402 38.8054L17.0063 34.7627C16.8505 34.6653 16.6533 34.7143 16.5668 34.8694L15.2172 37.2975C15.1307 37.4526 15.1961 37.6443 15.3629 37.7207L21.5524 40.6077C21.7191 40.6857 21.8563 40.8922 21.8578 41.0675L21.9069 46.7489C21.9077 46.9243 21.7901 47.1549 21.6436 47.2632L15.4985 51.7883C15.352 51.895 15.1541 51.86 15.0582 51.7088L11.7511 46.5253C11.6553 46.3749 11.6599 46.1294 11.7612 45.9853L14.9265 41.3878C15.0278 41.2405 15.0115 41.0122 14.8899 40.8797L11.0755 36.7123C10.9539 36.5798 10.9321 36.3469 11.0264 36.1957L14.194 31.1158C14.2883 30.9646 14.494 30.9171 14.6522 31.0106L23.7436 36.3796C23.901 36.4723 24.0296 36.4037 24.0296 36.2284V34.684C24.0296 34.5079 23.9197 34.2655 23.7857 34.1439L16.732 27.7916C16.5972 27.6716 16.5699 27.4511 16.6697 27.303L16.799 27.1129C16.8995 26.9648 17.1216 26.9017 17.2915 26.971L28.1923 31.4556C28.3622 31.5249 28.6403 31.5249 28.8102 31.4556L39.7102 26.971C39.8801 26.9009 40.1022 26.9648 40.2019 27.1129L40.3321 27.303C40.4318 27.4511 40.4061 27.6716 40.2697 27.7916L33.216 34.1439C33.0812 34.2663 32.9721 34.5079 32.9721 34.684V36.2284C32.9721 36.4045 33.1015 36.4723 33.2581 36.3796L42.3495 31.0106C42.5069 30.9171 42.7134 30.9646 42.8069 31.1158L45.9745 36.1957C46.0688 36.3461 46.0462 36.5791 45.9247 36.7115Z" fill="#8C67F6"/>
</svg>
